<svg width="269" height="104" viewBox="0 0 269 104" fill="none" xmlns="http://www.w3.org/2000/svg">
<g filter="url(#filter0_dd_1502_296)">
<path d="M49.459 0H55.3037L58.4209 0.259766L62.5771 0.90918L66.3438 1.81836L69.3311 2.85742L71.9287 4.02637L74.7861 5.45508L77.7734 7.14355L79.4619 8.18262L80.6309 9.0918L80.8906 9.61133L80.2412 9.48145L76.6045 7.79297L72.9678 6.49414L69.9805 5.71484L67.2529 5.19531L65.0449 4.93555L62.1875 4.80566H58.5508L54.7842 5.06543L51.667 5.58496L48.0303 6.49414L45.043 7.5332L41.7959 8.96191L39.5879 10.1309L37.5098 11.4297L35.4316 12.8584L34.1328 13.8975L32.7041 15.0664L31.4053 16.2354L30.3662 17.1445L28.9375 18.5732L28.0283 19.6123L26.4697 21.5605L24.9111 23.7686L22.9629 27.0156L21.4043 30.0029L20.1055 33.1201L19.0664 36.3672L18.417 39.3545L17.7676 43.1211L17.5078 45.7188V49.7451L17.8975 53.252L18.6768 57.4082L19.4561 60.3955L20.4951 63.3828L21.7939 66.3701L23.2227 69.0977L24.6514 71.4355L25.9502 73.2539L27.3789 75.0723L28.8076 76.6309L29.7168 77.6699L31.2754 79.2285L32.3145 80.1377L34.1328 81.6963L36.4707 83.3848L38.8086 84.8135L41.9258 86.502L44.5234 87.6709L49.1992 89.2295L53.0957 90.1387L55.4336 90.5283L56.7324 90.6582H64.2656L67.5127 90.2686L70.6299 89.6191L74.916 88.3203L77.5137 87.2812L79.5918 86.2422L80.501 85.9824L80.6309 86.2422L79.9814 86.8916L77.5137 88.4502L74.7861 90.0088L71.5391 91.5674L67.7725 92.9961L65.0449 93.9053L61.9277 94.6846L58.4209 95.2041L55.5635 95.4639H47.1211L43.7441 95.0742L40.2373 94.2949L37.1201 93.3857L33.4834 91.957L29.7168 90.1387L27.249 88.8398L24.6514 87.1514L22.833 85.8525L20.7549 84.1641L19.3262 82.9951L16.3389 80.0078L15.1699 78.5791L13.7412 76.7607L12.3125 74.8125L10.7539 72.3447L9.19531 69.6172L7.63672 66.2402L6.59766 63.5127L5.68848 60.2656L4.7793 56.3691L4.12988 52.4727L4 50.9141V44.9395L4.12988 42.7314L4.90918 38.0557L5.94824 33.8994L7.11719 30.5225L8.41602 27.5352L9.45508 25.3271L11.2734 22.21L12.5723 20.2617L13.8711 18.5732L15.5596 16.4951L17.5078 14.417L20.625 11.2998L22.833 9.61133L24.9111 8.05273L27.6387 6.36426L31.0156 4.5459L33.6133 3.37695L36.3408 2.33789L38.2891 1.68848L42.0557 0.779297L45.3027 0.259766L46.6016 0.129883L49.459 0Z" fill="#872727"/>
</g>
<g filter="url(#filter1_dd_1502_296)">
<path d="M58.4219 9.61133H65.4355L69.4619 10.001L73.0986 10.7803L77.3848 12.209L79.8525 13.3779L82.9697 15.1963L84.918 16.4951L86.6064 17.7939L88.4248 19.3525L91.4121 22.3398L92.5811 23.7686L94.0098 25.5869L95.5684 28.0547L96.8672 30.3926L97.9062 32.6006L99.0752 35.8477L99.8545 38.5752L100.504 41.9521L100.634 43.5107V51.6934L100.374 54.1611L99.5947 57.668L98.6855 60.6553L97.3867 63.9023L96.3477 65.9805L95.1787 68.0586L93.3604 70.6562L91.6719 72.7344L90.1133 74.4229L87.9053 76.6309L86.4766 77.7998L84.5283 79.2285L81.6709 81.0469L78.1641 82.8652L74.3975 84.2939L71.6699 85.0732L69.0723 85.5928L65.6953 85.9824H60.3701L57.2529 85.7227L54.1357 85.2031L50.2393 84.1641L46.8623 82.8652L43.6152 81.3066L41.7969 80.2676L39.9785 78.9688L39.459 78.5791V78.3193L40.2383 78.4492L42.1865 79.3584L44.1348 80.1377L48.1611 81.3066L52.0576 81.9561L53.6162 82.0859H59.0713L62.1885 81.5664L65.6953 80.6572L68.5527 79.6182L71.7998 78.0596L74.5273 76.501L76.0859 75.4619L77.3848 74.4229L78.6836 73.2539L81.6709 70.2666L83.0996 68.4482L84.6582 66.2402L85.8271 64.1621L87.3857 60.915L88.2949 58.4473L89.0742 55.46L89.7236 52.083L89.9834 50.3945V45.459L89.334 41.1729L88.4248 37.5361L87.126 34.0293L86.0869 31.9512L85.0479 30.0029L83.8789 28.1846L82.5801 26.4961L81.1514 24.8076L79.333 22.8594L77.6445 21.3008L75.6963 19.8721L73.4883 18.4434L70.7607 16.8848L68.1631 15.7158L64.6562 14.5469L61.7988 13.8975L58.8115 13.5078H52.3174L49.2002 13.8975L46.8623 14.417L43.3555 15.5859L40.6279 16.7549H39.9785L40.1084 16.2354L42.1865 15.0664L45.3037 13.3779L48.1611 12.0791L52.4473 10.6504L56.084 9.87109L58.4219 9.61133Z" fill="#872727"/>
</g>
<g filter="url(#filter2_d_1502_296)">
<path d="M30.627 37.5352H33.3545L33.4844 37.665V46.4971H48.0312L48.1611 37.665H50.1094L50.6289 37.7949V57.7969H48.1611V50.1338L48.291 49.2246H33.4844L33.6143 54.5498V57.667L33.4844 57.7969H30.4971L30.3672 37.9248L30.627 37.5352Z" fill="#1F2427"/>
</g>
<g filter="url(#filter3_d_1502_296)">
<path d="M60.3701 37.7949H68.6826L74.3975 37.9248V39.0938L74.2676 40.5225L68.293 40.6523L65.6953 40.7822L65.5654 57.5371L65.4355 57.667H62.5781L62.4482 57.5371V40.6523H54.6553L53.7461 40.3926V38.5742L53.876 37.9248L60.3701 37.7949Z" fill="#23272A"/>
</g>
<g filter="url(#filter4_d_1502_296)">
<path d="M152.196 27.4043H170.12L173.497 27.6641L175.315 28.0537L177.653 28.9629L179.472 30.1318L180.771 31.3008L181.68 32.4697L182.589 34.2881L182.979 35.7168L183.108 36.4961V38.834L182.589 40.9121L181.68 42.6006L180.381 44.1592L178.822 45.3281L177.134 45.9775L175.445 46.4971L178.303 47.4062L180.381 48.4453L181.81 49.4844L182.849 50.6533L183.758 52.2119L184.407 53.9004L184.667 55.1992V58.3164L184.277 60.1348L183.238 62.2129L182.199 63.6416L180.771 65.0703L178.692 66.3691L177.264 67.0186L174.796 67.668L172.588 67.9277L169.341 68.0576H152.196L152.066 67.7979V27.7939L152.196 27.4043ZM162.067 35.1973L161.938 41.4316V44.0293L164.405 44.1592H167.263L169.211 44.0293L170.51 43.5098L171.549 42.8604L172.198 42.2109L172.718 41.5615L172.978 40.7822V38.5742L172.458 37.2754L171.419 36.1064L170.38 35.5869L169.341 35.3271L167.912 35.1973H162.067ZM161.938 50.3936V59.7451L162.067 60.1348L162.977 60.2646H165.964L169.081 60.1348L171.289 59.7451L173.107 58.8359L173.887 57.7969L174.406 56.1084V54.5498L173.757 52.8613L172.588 51.5625L171.549 50.9131L170.12 50.5234L168.562 50.3936H161.938Z" fill="#1F2326"/>
</g>
<g filter="url(#filter5_d_1502_296)">
<path d="M110.246 27.4043H118.429L120.117 27.5342L120.247 30.6514V36.3662L120.117 43.7695H136.093V27.6641L136.223 27.4043H141.158L145.964 27.5342L146.094 27.6641V35.7168L145.964 67.9277L141.678 68.0576H136.353L136.223 67.9277L136.093 66.2393V51.6924H120.117V67.9277L114.143 68.0576H110.636L110.246 67.9277V27.4043Z" fill="#1E2326"/>
</g>
<g filter="url(#filter6_d_1502_296)">
<path d="M210.646 50.5234H214.282L215.841 50.9131L217.27 51.8223L218.438 53.1211L219.348 54.6797L219.867 56.3682L219.997 57.0176L220.127 59.875L219.737 60.1348L207.398 60.2646L207.788 62.4727L208.308 63.5117L209.477 64.8105L210.646 65.5898L212.204 65.9795H213.243L214.542 65.7197L216.101 64.8105L217.01 63.7715L217.399 63.5117L218.698 63.6416L219.737 63.9014L219.607 64.8105L218.828 65.8496L217.659 67.0186L216.49 67.7979L214.542 68.3174L212.594 68.4473L210.516 68.1875L208.957 67.668L207.788 66.8887L206.619 65.7197L205.58 63.9014L204.931 61.8232L204.801 61.1738V57.5371L205.45 55.0693L206.229 53.6406L207.398 52.3418L208.438 51.4326L210.126 50.6533L210.646 50.5234ZM211.295 52.8613L209.996 53.3809L208.438 54.8096L207.528 56.6279L207.269 57.7969L207.398 57.9268H217.529L217.659 57.5371L217.01 55.8486L216.101 54.29L215.062 53.3809L213.763 52.8613H211.295Z" fill="#212528"/>
</g>
<g filter="url(#filter7_d_1502_296)">
<path d="M242.984 44.8086H244.543L244.673 44.9385V53.251L246.231 51.5625L247.271 50.9131L248.569 50.5234H251.557L252.855 50.9131L254.024 51.6924L254.934 52.6016L255.713 54.1602L255.973 55.3291V67.9277H253.505L253.375 67.7979L253.245 55.9785L252.726 54.6797L251.816 53.6406L251.037 53.1211L250.128 52.8613H248.569L247.4 53.1211L246.361 53.9004L245.322 55.0693L244.933 55.8486L244.803 56.498L244.673 67.7979L244.543 67.9277H242.075L241.945 67.668V44.9385L242.984 44.8086Z" fill="#24282B"/>
</g>
<g filter="url(#filter8_d_1502_296)">
<path d="M186.747 44.8086H203.762L204.021 44.9385V47.1465L203.762 47.2764L196.878 47.4062L196.748 67.9277L196.358 68.0576L194.021 67.9277L193.891 67.7979V47.2764H186.617V45.0684L186.747 44.8086Z" fill="#202427"/>
</g>
<g filter="url(#filter9_d_1502_296)">
<path d="M229.477 50.5234H232.983L234.672 51.043L236.101 51.9521L237.14 53.1211L237.789 54.4199L238.049 55.7188L237.919 55.8486H235.971L235.062 55.0693L234.152 54.0303L233.113 53.251L232.464 52.9912H230.126L228.697 53.5107L227.788 54.29L226.749 55.9785L226.229 57.667L226.1 58.4463V60.7842L226.489 62.3428L227.269 63.9014L227.918 64.6807L229.217 65.5898L230.775 65.9795H232.074L233.243 65.5898L234.542 64.5508L235.321 63.3818L235.711 62.9922L237.789 62.8623L238.049 62.9922L237.919 64.1611L237.01 65.7197L235.581 67.1484L234.152 67.9277L232.594 68.3174H229.606L228.048 67.9277L226.749 67.1484L225.58 66.1094L224.671 64.8105L223.892 63.252L223.372 61.3037L223.242 60.1348V58.8359L223.502 57.0176L224.021 55.1992L224.931 53.5107L226.1 52.2119L227.269 51.3027L228.827 50.6533L229.477 50.5234Z" fill="#212528"/>
</g>
<g filter="url(#filter10_d_1502_296)">
<path d="M262.597 62.6035H263.766L264.805 63.123L265.844 64.292L266.104 64.9414V66.1104L265.584 67.0195L265.064 67.6689L264.155 68.1885L263.896 68.3184H262.467L261.428 67.7988L260.389 66.6299L260.129 65.9805V64.8115L260.648 63.7725L261.558 62.9932L262.597 62.6035Z" fill="#212629"/>
</g>
<path d="M114.058 73.3029H114.672L116.782 78.3711H116.833L118.944 73.3029H119.558V79.1211H119.058V74.4251H119.012L117.049 79.1211H116.566L114.603 74.4251H114.558V79.1211H114.058V73.3029ZM122.764 79.212C122.357 79.212 122.004 79.1173 121.707 78.9279C121.41 78.7366 121.18 78.4724 121.017 78.1353C120.856 77.7963 120.775 77.4061 120.775 76.9648C120.775 76.5254 120.856 76.1353 121.017 75.7944C121.18 75.4516 121.404 75.1836 121.69 74.9904C121.978 74.7953 122.31 74.6978 122.687 74.6978C122.924 74.6978 123.152 74.7414 123.372 74.8285C123.592 74.9137 123.788 75.0453 123.963 75.2234C124.139 75.3995 124.278 75.622 124.38 75.891C124.483 76.158 124.534 76.4743 124.534 76.8398V77.0898H121.125V76.6438H124.017C124.017 76.3635 123.96 76.1116 123.846 75.8881C123.734 75.6628 123.578 75.4847 123.377 75.354C123.179 75.2234 122.949 75.158 122.687 75.158C122.411 75.158 122.167 75.2319 121.957 75.3796C121.747 75.5273 121.582 75.7224 121.463 75.9648C121.345 76.2073 121.286 76.4724 121.284 76.7603V77.0273C121.284 77.3739 121.343 77.677 121.463 77.9364C121.584 78.194 121.755 78.3938 121.977 78.5359C122.199 78.6779 122.461 78.7489 122.764 78.7489C122.97 78.7489 123.151 78.7167 123.306 78.6523C123.464 78.5879 123.595 78.5018 123.701 78.3938C123.809 78.284 123.891 78.1637 123.946 78.033L124.426 78.1893C124.359 78.373 124.251 78.5425 124.099 78.6978C123.949 78.8531 123.762 78.9781 123.537 79.0728C123.313 79.1656 123.056 79.212 122.764 79.212ZM126.154 76.3938V79.1211H125.648V74.7575H126.14V75.4421H126.185C126.287 75.2186 126.446 75.0397 126.662 74.9052C126.88 74.7688 127.149 74.7006 127.469 74.7006C127.763 74.7006 128.02 74.7622 128.242 74.8853C128.465 75.0065 128.639 75.1855 128.762 75.4222C128.887 75.659 128.949 75.9497 128.949 76.2944V79.1211H128.444V76.3256C128.444 75.9677 128.343 75.6845 128.142 75.4762C127.944 75.2679 127.676 75.1637 127.341 75.1637C127.112 75.1637 126.908 75.2129 126.73 75.3114C126.552 75.4099 126.411 75.552 126.307 75.7376C126.205 75.9213 126.154 76.14 126.154 76.3938ZM131.977 79.212C131.6 79.212 131.267 79.1164 130.977 78.9251C130.689 78.7338 130.464 78.4696 130.301 78.1325C130.138 77.7934 130.056 77.4023 130.056 76.9592C130.056 76.5122 130.138 76.1192 130.301 75.7802C130.464 75.4393 130.689 75.1741 130.977 74.9847C131.267 74.7934 131.6 74.6978 131.977 74.6978C132.354 74.6978 132.686 74.7934 132.974 74.9847C133.262 75.176 133.487 75.4412 133.65 75.7802C133.815 76.1192 133.897 76.5122 133.897 76.9592C133.897 77.4023 133.816 77.7934 133.653 78.1325C133.49 78.4696 133.264 78.7338 132.974 78.9251C132.686 79.1164 132.354 79.212 131.977 79.212ZM131.977 78.7489C132.28 78.7489 132.537 78.6675 132.747 78.5046C132.957 78.3417 133.116 78.1249 133.224 77.854C133.334 77.5832 133.389 77.2849 133.389 76.9592C133.389 76.6334 133.334 76.3342 133.224 76.0614C133.116 75.7887 132.957 75.57 132.747 75.4052C132.537 75.2404 132.28 75.158 131.977 75.158C131.676 75.158 131.419 75.2404 131.207 75.4052C130.997 75.57 130.837 75.7887 130.727 76.0614C130.619 76.3342 130.565 76.6334 130.565 76.9592C130.565 77.2849 130.619 77.5832 130.727 77.854C130.837 78.1249 130.997 78.3417 131.207 78.5046C131.417 78.6675 131.674 78.7489 131.977 78.7489ZM137.939 75.7148L137.476 75.8455C137.431 75.7148 137.366 75.5965 137.283 75.4904C137.2 75.3844 137.091 75.3001 136.956 75.2376C136.824 75.1751 136.659 75.1438 136.462 75.1438C136.167 75.1438 135.924 75.2139 135.735 75.354C135.545 75.4942 135.451 75.6751 135.451 75.8967C135.451 76.0842 135.515 76.2366 135.644 76.354C135.775 76.4696 135.975 76.5614 136.246 76.6296L136.905 76.7915C137.271 76.8806 137.544 77.0217 137.726 77.2148C137.91 77.408 138.002 77.6504 138.002 77.9421C138.002 78.1883 137.934 78.4071 137.797 78.5984C137.661 78.7897 137.471 78.9402 137.226 79.0501C136.984 79.158 136.703 79.212 136.382 79.212C135.956 79.212 135.605 79.1164 135.328 78.9251C135.052 78.7319 134.875 78.4535 134.797 78.0898L135.283 77.9705C135.346 78.23 135.468 78.426 135.65 78.5586C135.833 78.6912 136.075 78.7575 136.374 78.7575C136.709 78.7575 136.977 78.6826 137.178 78.533C137.379 78.3815 137.479 78.1921 137.479 77.9648C137.479 77.7887 137.42 77.641 137.303 77.5217C137.185 77.4004 137.007 77.3114 136.769 77.2546L136.056 77.0842C135.677 76.9933 135.397 76.8493 135.215 76.6523C135.033 76.4554 134.942 76.2111 134.942 75.9194C134.942 75.6789 135.007 75.4677 135.138 75.2859C135.269 75.1022 135.449 74.9582 135.678 74.854C135.907 74.7499 136.168 74.6978 136.462 74.6978C136.862 74.6978 137.181 74.7887 137.419 74.9705C137.66 75.1504 137.833 75.3986 137.939 75.7148ZM143.064 79.212C142.673 79.212 142.333 79.1145 142.044 78.9194C141.756 78.7243 141.532 78.4573 141.373 78.1183C141.214 77.7792 141.135 77.3929 141.135 76.9592C141.135 76.5217 141.215 76.1325 141.376 75.7915C141.539 75.4506 141.764 75.1836 142.052 74.9904C142.34 74.7953 142.674 74.6978 143.055 74.6978C143.347 74.6978 143.611 74.7546 143.848 74.8683C144.084 74.98 144.279 75.1381 144.433 75.3427C144.588 75.5453 144.686 75.7821 144.725 76.0529H144.214C144.161 75.8067 144.033 75.5965 143.831 75.4222C143.63 75.2461 143.374 75.158 143.064 75.158C142.785 75.158 142.539 75.2338 142.325 75.3853C142.111 75.5349 141.943 75.7442 141.822 76.0131C141.703 76.2802 141.643 76.5898 141.643 76.9421C141.643 77.2963 141.702 77.6097 141.819 77.8825C141.937 78.1533 142.101 78.3654 142.314 78.5188C142.528 78.6722 142.778 78.7489 143.064 78.7489C143.257 78.7489 143.433 78.7129 143.592 78.641C143.753 78.5671 143.887 78.4629 143.995 78.3285C144.105 78.194 144.179 78.034 144.217 77.8484H144.728C144.69 78.1116 144.597 78.3465 144.447 78.5529C144.299 78.7575 144.107 78.9184 143.87 79.0359C143.636 79.1533 143.367 79.212 143.064 79.212ZM147.508 79.212C147.131 79.212 146.798 79.1164 146.508 78.9251C146.22 78.7338 145.995 78.4696 145.832 78.1325C145.669 77.7934 145.588 77.4023 145.588 76.9592C145.588 76.5122 145.669 76.1192 145.832 75.7802C145.995 75.4393 146.22 75.1741 146.508 74.9847C146.798 74.7934 147.131 74.6978 147.508 74.6978C147.885 74.6978 148.217 74.7934 148.505 74.9847C148.793 75.176 149.019 75.4412 149.181 75.7802C149.346 76.1192 149.429 76.5122 149.429 76.9592C149.429 77.4023 149.347 77.7934 149.184 78.1325C149.021 78.4696 148.795 78.7338 148.505 78.9251C148.217 79.1164 147.885 79.212 147.508 79.212ZM147.508 78.7489C147.811 78.7489 148.068 78.6675 148.278 78.5046C148.488 78.3417 148.647 78.1249 148.755 77.854C148.865 77.5832 148.92 77.2849 148.92 76.9592C148.92 76.6334 148.865 76.3342 148.755 76.0614C148.647 75.7887 148.488 75.57 148.278 75.4052C148.068 75.2404 147.811 75.158 147.508 75.158C147.207 75.158 146.95 75.2404 146.738 75.4052C146.528 75.57 146.368 75.7887 146.258 76.0614C146.15 76.3342 146.096 76.6334 146.096 76.9592C146.096 77.2849 146.15 77.5832 146.258 77.854C146.368 78.1249 146.528 78.3417 146.738 78.5046C146.949 78.6675 147.205 78.7489 147.508 78.7489ZM150.539 79.1211V74.7575H151.03V75.4279H151.076C151.163 75.2025 151.308 75.0254 151.51 74.8967C151.715 74.766 151.96 74.7006 152.246 74.7006C152.547 74.7006 152.794 74.7717 152.988 74.9137C153.183 75.0539 153.328 75.247 153.425 75.4933H153.462C153.56 75.2508 153.721 75.0586 153.942 74.9165C154.166 74.7726 154.436 74.7006 154.755 74.7006C155.16 74.7006 155.48 74.8285 155.715 75.0842C155.95 75.3379 156.067 75.7092 156.067 76.1978V79.1211H155.561V76.1978C155.561 75.8531 155.473 75.5946 155.297 75.4222C155.121 75.2499 154.889 75.1637 154.601 75.1637C154.268 75.1637 154.011 75.266 153.831 75.4705C153.651 75.6751 153.561 75.9345 153.561 76.2489V79.1211H153.044V76.1523C153.044 75.8569 152.962 75.6183 152.797 75.4364C152.632 75.2546 152.4 75.1637 152.101 75.1637C151.9 75.1637 151.72 75.2129 151.559 75.3114C151.4 75.4099 151.274 75.5472 151.181 75.7234C151.09 75.8976 151.044 76.0984 151.044 76.3256V79.1211H150.539ZM157.406 80.7575V74.7575H157.897V75.5898H157.957C158.018 75.4592 158.101 75.3256 158.207 75.1893C158.313 75.051 158.453 74.9345 158.627 74.8398C158.804 74.7451 159.025 74.6978 159.292 74.6978C159.652 74.6978 159.967 74.7925 160.235 74.9819C160.506 75.1694 160.717 75.4326 160.866 75.7717C161.018 76.1088 161.093 76.5018 161.093 76.9506C161.093 77.4014 161.018 77.7963 160.866 78.1353C160.717 78.4743 160.506 78.7385 160.235 78.9279C159.967 79.1173 159.654 79.212 159.298 79.212C159.035 79.212 158.814 79.1647 158.636 79.07C158.46 78.9753 158.317 78.8588 158.207 78.7205C158.099 78.5804 158.016 78.444 157.957 78.3114H157.912V80.7575H157.406ZM157.906 76.9421C157.906 77.2944 157.958 77.6069 158.062 77.8796C158.168 78.1504 158.32 78.3635 158.517 78.5188C158.716 78.6722 158.956 78.7489 159.238 78.7489C159.528 78.7489 159.772 78.6694 159.971 78.5103C160.172 78.3493 160.324 78.1325 160.429 77.8597C160.535 77.587 160.588 77.2811 160.588 76.9421C160.588 76.6069 160.536 76.3048 160.431 76.0359C160.329 75.7669 160.178 75.5539 159.977 75.3967C159.776 75.2376 159.53 75.158 159.238 75.158C158.954 75.158 158.713 75.2347 158.514 75.3881C158.315 75.5397 158.163 75.7499 158.059 76.0188C157.957 76.2859 157.906 76.5936 157.906 76.9421ZM162.708 73.3029V79.1211H162.203V73.3029H162.708ZM165.811 79.212C165.404 79.212 165.051 79.1173 164.754 78.9279C164.457 78.7366 164.226 78.4724 164.064 78.1353C163.903 77.7963 163.822 77.4061 163.822 76.9648C163.822 76.5254 163.903 76.1353 164.064 75.7944C164.226 75.4516 164.451 75.1836 164.737 74.9904C165.025 74.7953 165.357 74.6978 165.734 74.6978C165.971 74.6978 166.199 74.7414 166.419 74.8285C166.638 74.9137 166.835 75.0453 167.01 75.2234C167.186 75.3995 167.325 75.622 167.427 75.891C167.529 76.158 167.581 76.4743 167.581 76.8398V77.0898H164.172V76.6438H167.064C167.064 76.3635 167.007 76.1116 166.893 75.8881C166.781 75.6628 166.625 75.4847 166.424 75.354C166.225 75.2234 165.995 75.158 165.734 75.158C165.458 75.158 165.214 75.2319 165.004 75.3796C164.794 75.5273 164.629 75.7224 164.51 75.9648C164.392 76.2073 164.333 76.4724 164.331 76.7603V77.0273C164.331 77.3739 164.39 77.677 164.51 77.9364C164.631 78.194 164.802 78.3938 165.024 78.5359C165.245 78.6779 165.508 78.7489 165.811 78.7489C166.017 78.7489 166.198 78.7167 166.353 78.6523C166.511 78.5879 166.642 78.5018 166.748 78.3938C166.856 78.284 166.938 78.1637 166.993 78.033L167.473 78.1893C167.406 78.373 167.297 78.5425 167.146 78.6978C166.996 78.8531 166.809 78.9781 166.583 79.0728C166.36 79.1656 166.102 79.212 165.811 79.212ZM168.89 74.7575L170.015 76.6183L171.14 74.7575H171.728L170.325 76.9393L171.728 79.1211H171.14L170.015 77.32L168.89 79.1211H168.305L169.691 76.9393L168.305 74.7575H168.89ZM172.794 79.1211V74.7575H173.303V79.1211H172.794ZM173.053 74.0075C172.949 74.0075 172.86 73.9724 172.786 73.9023C172.712 73.8304 172.675 73.7442 172.675 73.6438C172.675 73.5434 172.712 73.4582 172.786 73.3881C172.86 73.3162 172.949 73.2802 173.053 73.2802C173.157 73.2802 173.246 73.3162 173.32 73.3881C173.394 73.4582 173.431 73.5434 173.431 73.6438C173.431 73.7442 173.394 73.8304 173.32 73.9023C173.246 73.9724 173.157 74.0075 173.053 74.0075ZM176.211 79.212C175.853 79.212 175.54 79.1173 175.271 78.9279C175.002 78.7385 174.792 78.4743 174.64 78.1353C174.491 77.7963 174.416 77.4014 174.416 76.9506C174.416 76.5018 174.491 76.1088 174.64 75.7717C174.792 75.4326 175.003 75.1694 175.274 74.9819C175.545 74.7925 175.86 74.6978 176.22 74.6978C176.485 74.6978 176.706 74.7451 176.882 74.8398C177.058 74.9326 177.199 75.0482 177.305 75.1864C177.411 75.3247 177.493 75.4592 177.552 75.5898H177.598V73.3029H178.106V79.1211H177.612V78.3114H177.552C177.493 78.444 177.41 78.5804 177.302 78.7205C177.194 78.8588 177.051 78.9753 176.873 79.07C176.697 79.1647 176.476 79.212 176.211 79.212ZM176.271 78.7489C176.553 78.7489 176.794 78.6722 176.993 78.5188C177.191 78.3635 177.343 78.1504 177.447 77.8796C177.553 77.6069 177.606 77.2944 177.606 76.9421C177.606 76.5936 177.554 76.2859 177.45 76.0188C177.346 75.7499 177.194 75.5397 176.995 75.3881C176.797 75.2347 176.555 75.158 176.271 75.158C175.979 75.158 175.733 75.2376 175.532 75.3967C175.333 75.5539 175.182 75.7669 175.078 76.0359C174.975 76.3048 174.924 76.6069 174.924 76.9421C174.924 77.2811 174.976 77.587 175.081 77.8597C175.185 78.1325 175.336 78.3493 175.535 78.5103C175.736 78.6694 175.981 78.7489 176.271 78.7489ZM180.765 79.2205C180.502 79.2205 180.261 79.1694 180.044 79.0671C179.826 78.9629 179.653 78.8133 179.524 78.6183C179.395 78.4213 179.331 78.1826 179.331 77.9023C179.331 77.6864 179.371 77.5046 179.453 77.3569C179.534 77.2092 179.65 77.0879 179.799 76.9933C179.949 76.8986 180.126 76.8237 180.331 76.7688C180.535 76.7139 180.761 76.6713 181.007 76.641C181.251 76.6107 181.458 76.5842 181.626 76.5614C181.797 76.5387 181.926 76.5027 182.015 76.4535C182.104 76.4042 182.149 76.3247 182.149 76.2148V76.1126C182.149 75.8152 182.06 75.5813 181.882 75.4109C181.706 75.2385 181.452 75.1523 181.12 75.1523C180.806 75.1523 180.549 75.2215 180.35 75.3597C180.154 75.498 180.015 75.6609 179.936 75.8484L179.456 75.6751C179.554 75.4364 179.69 75.2461 179.865 75.104C180.039 74.9601 180.234 74.8569 180.45 74.7944C180.666 74.73 180.885 74.6978 181.106 74.6978C181.273 74.6978 181.446 74.7196 181.626 74.7631C181.808 74.8067 181.976 74.8825 182.132 74.9904C182.287 75.0965 182.413 75.2451 182.51 75.4364C182.606 75.6258 182.654 75.8664 182.654 76.158V79.1211H182.149V78.4308H182.118C182.057 78.5595 181.967 78.6845 181.848 78.8058C181.728 78.927 181.579 79.0264 181.399 79.104C181.219 79.1817 181.008 79.2205 180.765 79.2205ZM180.833 78.7575C181.102 78.7575 181.335 78.6978 181.532 78.5785C181.729 78.4592 181.881 78.301 181.987 78.104C182.095 77.9052 182.149 77.6864 182.149 77.4478V76.8171C182.111 76.8531 182.047 76.8853 181.958 76.9137C181.871 76.9421 181.77 76.9677 181.654 76.9904C181.541 77.0112 181.427 77.0292 181.314 77.0444C181.2 77.0595 181.098 77.0728 181.007 77.0842C180.761 77.1145 180.55 77.1618 180.376 77.2262C180.202 77.2906 180.068 77.3796 179.975 77.4933C179.883 77.605 179.836 77.7489 179.836 77.9251C179.836 78.1902 179.931 78.3957 180.12 78.5415C180.31 78.6855 180.547 78.7575 180.833 78.7575ZM185.571 79.212C185.213 79.212 184.899 79.1173 184.63 78.9279C184.361 78.7385 184.151 78.4743 184 78.1353C183.85 77.7963 183.775 77.4014 183.775 76.9506C183.775 76.5018 183.85 76.1088 184 75.7717C184.151 75.4326 184.362 75.1694 184.633 74.9819C184.904 74.7925 185.219 74.6978 185.579 74.6978C185.844 74.6978 186.065 74.7451 186.241 74.8398C186.417 74.9326 186.558 75.0482 186.664 75.1864C186.77 75.3247 186.853 75.4592 186.912 75.5898H186.957V73.3029H187.466V79.1211H186.971V78.3114H186.912C186.853 78.444 186.77 78.5804 186.662 78.7205C186.554 78.8588 186.411 78.9753 186.233 79.07C186.056 79.1647 185.836 79.212 185.571 79.212ZM185.63 78.7489C185.913 78.7489 186.153 78.6722 186.352 78.5188C186.551 78.3635 186.702 78.1504 186.806 77.8796C186.913 77.6069 186.966 77.2944 186.966 76.9421C186.966 76.5936 186.913 76.2859 186.809 76.0188C186.705 75.7499 186.554 75.5397 186.355 75.3881C186.156 75.2347 185.914 75.158 185.63 75.158C185.339 75.158 185.092 75.2376 184.892 75.3967C184.693 75.5539 184.541 75.7669 184.437 76.0359C184.335 76.3048 184.284 76.6069 184.284 76.9421C184.284 77.2811 184.336 77.587 184.44 77.8597C184.544 78.1325 184.696 78.3493 184.895 78.5103C185.095 78.6694 185.341 78.7489 185.63 78.7489ZM190.67 79.212C190.263 79.212 189.911 79.1173 189.613 78.9279C189.316 78.7366 189.086 78.4724 188.923 78.1353C188.762 77.7963 188.681 77.4061 188.681 76.9648C188.681 76.5254 188.762 76.1353 188.923 75.7944C189.086 75.4516 189.31 75.1836 189.596 74.9904C189.884 74.7953 190.217 74.6978 190.593 74.6978C190.83 74.6978 191.058 74.7414 191.278 74.8285C191.498 74.9137 191.695 75.0453 191.869 75.2234C192.045 75.3995 192.184 75.622 192.287 75.891C192.389 76.158 192.44 76.4743 192.44 76.8398V77.0898H189.031V76.6438H191.923C191.923 76.3635 191.866 76.1116 191.752 75.8881C191.641 75.6628 191.484 75.4847 191.284 75.354C191.085 75.2234 190.855 75.158 190.593 75.158C190.317 75.158 190.074 75.2319 189.863 75.3796C189.653 75.5273 189.488 75.7224 189.369 75.9648C189.252 76.2073 189.192 76.4724 189.19 76.7603V77.0273C189.19 77.3739 189.25 77.677 189.369 77.9364C189.49 78.194 189.662 78.3938 189.883 78.5359C190.105 78.6779 190.367 78.7489 190.67 78.7489C190.877 78.7489 191.057 78.7167 191.213 78.6523C191.37 78.5879 191.502 78.5018 191.608 78.3938C191.716 78.284 191.797 78.1637 191.852 78.033L192.332 78.1893C192.266 78.373 192.157 78.5425 192.005 78.6978C191.856 78.8531 191.668 78.9781 191.443 79.0728C191.219 79.1656 190.962 79.212 190.67 79.212ZM197.569 79.212C197.161 79.212 196.809 79.1173 196.512 78.9279C196.214 78.7366 195.984 78.4724 195.821 78.1353C195.66 77.7963 195.58 77.4061 195.58 76.9648C195.58 76.5254 195.66 76.1353 195.821 75.7944C195.984 75.4516 196.209 75.1836 196.495 74.9904C196.783 74.7953 197.115 74.6978 197.492 74.6978C197.729 74.6978 197.957 74.7414 198.176 74.8285C198.396 74.9137 198.593 75.0453 198.767 75.2234C198.944 75.3995 199.083 75.622 199.185 75.891C199.287 76.158 199.338 76.4743 199.338 76.8398V77.0898H195.929V76.6438H198.821C198.821 76.3635 198.765 76.1116 198.651 75.8881C198.539 75.6628 198.383 75.4847 198.182 75.354C197.983 75.2234 197.753 75.158 197.492 75.158C197.215 75.158 196.972 75.2319 196.762 75.3796C196.551 75.5273 196.387 75.7224 196.267 75.9648C196.15 76.2073 196.09 76.4724 196.088 76.7603V77.0273C196.088 77.3739 196.148 77.677 196.267 77.9364C196.389 78.194 196.56 78.3938 196.782 78.5359C197.003 78.6779 197.266 78.7489 197.569 78.7489C197.775 78.7489 197.956 78.7167 198.111 78.6523C198.268 78.5879 198.4 78.5018 198.506 78.3938C198.614 78.284 198.695 78.1637 198.75 78.033L199.23 78.1893C199.164 78.373 199.055 78.5425 198.904 78.6978C198.754 78.8531 198.567 78.9781 198.341 79.0728C198.118 79.1656 197.86 79.212 197.569 79.212ZM202.703 79.1211V74.7575H203.194V75.4279H203.24C203.327 75.2025 203.472 75.0254 203.674 74.8967C203.879 74.766 204.124 74.7006 204.41 74.7006C204.711 74.7006 204.958 74.7717 205.152 74.9137C205.347 75.0539 205.493 75.247 205.589 75.4933H205.626C205.725 75.2508 205.885 75.0586 206.106 74.9165C206.33 74.7726 206.6 74.7006 206.919 74.7006C207.324 74.7006 207.644 74.8285 207.879 75.0842C208.114 75.3379 208.231 75.7092 208.231 76.1978V79.1211H207.725V76.1978C207.725 75.8531 207.637 75.5946 207.461 75.4222C207.285 75.2499 207.053 75.1637 206.765 75.1637C206.432 75.1637 206.175 75.266 205.995 75.4705C205.815 75.6751 205.725 75.9345 205.725 76.2489V79.1211H205.208V76.1523C205.208 75.8569 205.126 75.6183 204.961 75.4364C204.797 75.2546 204.565 75.1637 204.265 75.1637C204.065 75.1637 203.884 75.2129 203.723 75.3114C203.564 75.4099 203.438 75.5472 203.345 75.7234C203.254 75.8976 203.208 76.0984 203.208 76.3256V79.1211H202.703ZM210.789 79.2205C210.525 79.2205 210.285 79.1694 210.067 79.0671C209.849 78.9629 209.676 78.8133 209.547 78.6183C209.418 78.4213 209.354 78.1826 209.354 77.9023C209.354 77.6864 209.395 77.5046 209.476 77.3569C209.558 77.2092 209.673 77.0879 209.823 76.9933C209.972 76.8986 210.15 76.8237 210.354 76.7688C210.559 76.7139 210.784 76.6713 211.03 76.641C211.275 76.6107 211.481 76.5842 211.65 76.5614C211.82 76.5387 211.95 76.5027 212.039 76.4535C212.128 76.4042 212.172 76.3247 212.172 76.2148V76.1126C212.172 75.8152 212.083 75.5813 211.905 75.4109C211.729 75.2385 211.475 75.1523 211.144 75.1523C210.829 75.1523 210.573 75.2215 210.374 75.3597C210.177 75.498 210.039 75.6609 209.959 75.8484L209.479 75.6751C209.578 75.4364 209.714 75.2461 209.888 75.104C210.062 74.9601 210.257 74.8569 210.473 74.7944C210.689 74.73 210.908 74.6978 211.13 74.6978C211.296 74.6978 211.47 74.7196 211.65 74.7631C211.831 74.8067 212 74.8825 212.155 74.9904C212.31 75.0965 212.436 75.2451 212.533 75.4364C212.63 75.6258 212.678 75.8664 212.678 76.158V79.1211H212.172V78.4308H212.141C212.08 78.5595 211.99 78.6845 211.871 78.8058C211.752 78.927 211.602 79.0264 211.422 79.104C211.242 79.1817 211.031 79.2205 210.789 79.2205ZM210.857 78.7575C211.126 78.7575 211.359 78.6978 211.556 78.5785C211.753 78.4592 211.904 78.301 212.01 78.104C212.118 77.9052 212.172 77.6864 212.172 77.4478V76.8171C212.134 76.8531 212.071 76.8853 211.982 76.9137C211.895 76.9421 211.793 76.9677 211.678 76.9904C211.564 77.0112 211.451 77.0292 211.337 77.0444C211.223 77.0595 211.121 77.0728 211.03 77.0842C210.784 77.1145 210.574 77.1618 210.4 77.2262C210.225 77.2906 210.092 77.3796 209.999 77.4933C209.906 77.605 209.86 77.7489 209.86 77.9251C209.86 78.1902 209.954 78.3957 210.144 78.5415C210.333 78.6855 210.571 78.7575 210.857 78.7575ZM214.029 79.1211V74.7575H214.537V79.1211H214.029ZM214.287 74.0075C214.183 74.0075 214.094 73.9724 214.02 73.9023C213.946 73.8304 213.909 73.7442 213.909 73.6438C213.909 73.5434 213.946 73.4582 214.02 73.3881C214.094 73.3162 214.183 73.2802 214.287 73.2802C214.391 73.2802 214.48 73.3162 214.554 73.3881C214.628 73.4582 214.665 73.5434 214.665 73.6438C214.665 73.7442 214.628 73.8304 214.554 73.9023C214.48 73.9724 214.391 74.0075 214.287 74.0075ZM218.806 75.7148L218.343 75.8455C218.298 75.7148 218.234 75.5965 218.15 75.4904C218.067 75.3844 217.958 75.3001 217.824 75.2376C217.691 75.1751 217.526 75.1438 217.329 75.1438C217.034 75.1438 216.791 75.2139 216.602 75.354C216.413 75.4942 216.318 75.6751 216.318 75.8967C216.318 76.0842 216.382 76.2366 216.511 76.354C216.642 76.4696 216.842 76.5614 217.113 76.6296L217.772 76.7915C218.138 76.8806 218.412 77.0217 218.593 77.2148C218.777 77.408 218.869 77.6504 218.869 77.9421C218.869 78.1883 218.801 78.4071 218.664 78.5984C218.528 78.7897 218.338 78.9402 218.093 79.0501C217.851 79.158 217.57 79.212 217.25 79.212C216.824 79.212 216.472 79.1164 216.196 78.9251C215.919 78.7319 215.742 78.4535 215.664 78.0898L216.15 77.9705C216.213 78.23 216.335 78.426 216.517 78.5586C216.7 78.6912 216.942 78.7575 217.241 78.7575C217.576 78.7575 217.844 78.6826 218.045 78.533C218.246 78.3815 218.346 78.1921 218.346 77.9648C218.346 77.7887 218.288 77.641 218.17 77.5217C218.053 77.4004 217.875 77.3114 217.636 77.2546L216.923 77.0842C216.544 76.9933 216.264 76.8493 216.082 76.6523C215.9 76.4554 215.809 76.2111 215.809 75.9194C215.809 75.6789 215.875 75.4677 216.005 75.2859C216.136 75.1022 216.316 74.9582 216.545 74.854C216.774 74.7499 217.036 74.6978 217.329 74.6978C217.729 74.6978 218.048 74.7887 218.287 74.9705C218.527 75.1504 218.7 75.3986 218.806 75.7148ZM222.232 79.1211V74.7575H222.74V79.1211H222.232ZM222.49 74.0075C222.386 74.0075 222.297 73.9724 222.223 73.9023C222.15 73.8304 222.113 73.7442 222.113 73.6438C222.113 73.5434 222.15 73.4582 222.223 73.3881C222.297 73.3162 222.386 73.2802 222.49 73.2802C222.595 73.2802 222.684 73.3162 222.757 73.3881C222.831 73.4582 222.868 73.5434 222.868 73.6438C222.868 73.7442 222.831 73.8304 222.757 73.9023C222.684 73.9724 222.595 74.0075 222.49 74.0075ZM225.649 79.212C225.291 79.212 224.977 79.1173 224.708 78.9279C224.44 78.7385 224.229 78.4743 224.078 78.1353C223.928 77.7963 223.853 77.4014 223.853 76.9506C223.853 76.5018 223.928 76.1088 224.078 75.7717C224.229 75.4326 224.44 75.1694 224.711 74.9819C224.982 74.7925 225.297 74.6978 225.657 74.6978C225.922 74.6978 226.143 74.7451 226.319 74.8398C226.495 74.9326 226.636 75.0482 226.743 75.1864C226.849 75.3247 226.931 75.4592 226.99 75.5898H227.035V73.3029H227.544V79.1211H227.049V78.3114H226.99C226.931 78.444 226.848 78.5804 226.74 78.7205C226.632 78.8588 226.489 78.9753 226.311 79.07C226.135 79.1647 225.914 79.212 225.649 79.212ZM225.708 78.7489C225.991 78.7489 226.231 78.6722 226.43 78.5188C226.629 78.3635 226.78 78.1504 226.885 77.8796C226.991 77.6069 227.044 77.2944 227.044 76.9421C227.044 76.5936 226.992 76.2859 226.887 76.0188C226.783 75.7499 226.632 75.5397 226.433 75.3881C226.234 75.2347 225.993 75.158 225.708 75.158C225.417 75.158 225.171 75.2376 224.97 75.3967C224.771 75.5539 224.619 75.7669 224.515 76.0359C224.413 76.3048 224.362 76.6069 224.362 76.9421C224.362 77.2811 224.414 77.587 224.518 77.8597C224.622 78.1325 224.774 78.3493 224.973 78.5103C225.173 78.6694 225.419 78.7489 225.708 78.7489ZM230.748 79.212C230.341 79.212 229.989 79.1173 229.691 78.9279C229.394 78.7366 229.164 78.4724 229.001 78.1353C228.84 77.7963 228.76 77.4061 228.76 76.9648C228.76 76.5254 228.84 76.1353 229.001 75.7944C229.164 75.4516 229.388 75.1836 229.674 74.9904C229.962 74.7953 230.295 74.6978 230.672 74.6978C230.908 74.6978 231.136 74.7414 231.356 74.8285C231.576 74.9137 231.773 75.0453 231.947 75.2234C232.123 75.3995 232.262 75.622 232.365 75.891C232.467 76.158 232.518 76.4743 232.518 76.8398V77.0898H229.109V76.6438H232.001C232.001 76.3635 231.944 76.1116 231.831 75.8881C231.719 75.6628 231.563 75.4847 231.362 75.354C231.163 75.2234 230.933 75.158 230.672 75.158C230.395 75.158 230.152 75.2319 229.941 75.3796C229.731 75.5273 229.566 75.7224 229.447 75.9648C229.33 76.2073 229.27 76.4724 229.268 76.7603V77.0273C229.268 77.3739 229.328 77.677 229.447 77.9364C229.568 78.194 229.74 78.3938 229.961 78.5359C230.183 78.6779 230.445 78.7489 230.748 78.7489C230.955 78.7489 231.136 78.7167 231.291 78.6523C231.448 78.5879 231.58 78.5018 231.686 78.3938C231.794 78.284 231.875 78.1637 231.93 78.033L232.41 78.1893C232.344 78.373 232.235 78.5425 232.083 78.6978C231.934 78.8531 231.746 78.9781 231.521 79.0728C231.297 79.1656 231.04 79.212 230.748 79.212ZM234.138 76.3938V79.1211H233.632V74.7575H234.124V75.4421H234.169C234.272 75.2186 234.431 75.0397 234.647 74.9052C234.864 74.7688 235.133 74.7006 235.453 74.7006C235.747 74.7006 236.005 74.7622 236.226 74.8853C236.45 75.0065 236.623 75.1855 236.746 75.4222C236.871 75.659 236.934 75.9497 236.934 76.2944V79.1211H236.428V76.3256C236.428 75.9677 236.328 75.6845 236.127 75.4762C235.928 75.2679 235.661 75.1637 235.326 75.1637C235.096 75.1637 234.893 75.2129 234.715 75.3114C234.537 75.4099 234.396 75.552 234.292 75.7376C234.189 75.9213 234.138 76.14 234.138 76.3938ZM239.984 74.7575V75.1978H237.902V74.7575H239.984ZM238.552 73.712H239.061V77.9819C239.061 78.1637 239.092 78.3067 239.154 78.4109C239.217 78.5131 239.298 78.5861 239.399 78.6296C239.499 78.6713 239.606 78.6921 239.72 78.6921C239.786 78.6921 239.843 78.6883 239.89 78.6808C239.938 78.6713 239.979 78.6618 240.015 78.6523L240.123 79.1097C240.074 79.1287 240.013 79.1457 239.941 79.1609C239.869 79.1779 239.78 79.1864 239.674 79.1864C239.489 79.1864 239.31 79.1457 239.137 79.0643C238.967 78.9828 238.827 78.8616 238.717 78.7006C238.607 78.5397 238.552 78.3398 238.552 78.1012V73.712ZM241.138 79.1211V74.7575H241.647V79.1211H241.138ZM241.397 74.0075C241.292 74.0075 241.203 73.9724 241.13 73.9023C241.056 73.8304 241.019 73.7442 241.019 73.6438C241.019 73.5434 241.056 73.4582 241.13 73.3881C241.203 73.3162 241.292 73.2802 241.397 73.2802C241.501 73.2802 241.59 73.3162 241.664 73.3881C241.738 73.4582 241.775 73.5434 241.775 73.6438C241.775 73.7442 241.738 73.8304 241.664 73.9023C241.59 73.9724 241.501 74.0075 241.397 74.0075ZM244.555 79.212C244.197 79.212 243.884 79.1173 243.615 78.9279C243.346 78.7385 243.136 78.4743 242.984 78.1353C242.834 77.7963 242.76 77.4014 242.76 76.9506C242.76 76.5018 242.834 76.1088 242.984 75.7717C243.136 75.4326 243.347 75.1694 243.618 74.9819C243.888 74.7925 244.204 74.6978 244.564 74.6978C244.829 74.6978 245.049 74.7451 245.225 74.8398C245.402 74.9326 245.543 75.0482 245.649 75.1864C245.755 75.3247 245.837 75.4592 245.896 75.5898H245.941V73.3029H246.45V79.1211H245.956V78.3114H245.896C245.837 78.444 245.754 78.5804 245.646 78.7205C245.538 78.8588 245.395 78.9753 245.217 79.07C245.041 79.1647 244.82 79.212 244.555 79.212ZM244.615 78.7489C244.897 78.7489 245.137 78.6722 245.336 78.5188C245.535 78.3635 245.687 78.1504 245.791 77.8796C245.897 77.6069 245.95 77.2944 245.95 76.9421C245.95 76.5936 245.898 76.2859 245.794 76.0188C245.69 75.7499 245.538 75.5397 245.339 75.3881C245.14 75.2347 244.899 75.158 244.615 75.158C244.323 75.158 244.077 75.2376 243.876 75.3967C243.677 75.5539 243.526 75.7669 243.422 76.0359C243.319 76.3048 243.268 76.6069 243.268 76.9421C243.268 77.2811 243.32 77.587 243.424 77.8597C243.529 78.1325 243.68 78.3493 243.879 78.5103C244.08 78.6694 244.325 78.7489 244.615 78.7489ZM249.109 79.2205C248.846 79.2205 248.605 79.1694 248.387 79.0671C248.17 78.9629 247.996 78.8133 247.868 78.6183C247.739 78.4213 247.674 78.1826 247.674 77.9023C247.674 77.6864 247.715 77.5046 247.797 77.3569C247.878 77.2092 247.993 77.0879 248.143 76.9933C248.293 76.8986 248.47 76.8237 248.674 76.7688C248.879 76.7139 249.104 76.6713 249.35 76.641C249.595 76.6107 249.801 76.5842 249.97 76.5614C250.14 76.5387 250.27 76.5027 250.359 76.4535C250.448 76.4042 250.493 76.3247 250.493 76.2148V76.1126C250.493 75.8152 250.404 75.5813 250.225 75.4109C250.049 75.2385 249.796 75.1523 249.464 75.1523C249.15 75.1523 248.893 75.2215 248.694 75.3597C248.497 75.498 248.359 75.6609 248.279 75.8484L247.799 75.6751C247.898 75.4364 248.034 75.2461 248.208 75.104C248.383 74.9601 248.578 74.8569 248.794 74.7944C249.01 74.73 249.228 74.6978 249.45 74.6978C249.617 74.6978 249.79 74.7196 249.97 74.7631C250.152 74.8067 250.32 74.8825 250.475 74.9904C250.631 75.0965 250.757 75.2451 250.853 75.4364C250.95 75.6258 250.998 75.8664 250.998 76.158V79.1211H250.493V78.4308H250.461C250.401 78.5595 250.311 78.6845 250.191 78.8058C250.072 78.927 249.922 79.0264 249.743 79.104C249.563 79.1817 249.351 79.2205 249.109 79.2205ZM249.177 78.7575C249.446 78.7575 249.679 78.6978 249.876 78.5785C250.073 78.4592 250.225 78.301 250.331 78.104C250.439 77.9052 250.493 77.6864 250.493 77.4478V76.8171C250.455 76.8531 250.391 76.8853 250.302 76.9137C250.215 76.9421 250.114 76.9677 249.998 76.9904C249.885 77.0112 249.771 77.0292 249.657 77.0444C249.544 77.0595 249.441 77.0728 249.35 77.0842C249.104 77.1145 248.894 77.1618 248.72 77.2262C248.546 77.2906 248.412 77.3796 248.319 77.4933C248.226 77.605 248.18 77.7489 248.18 77.9251C248.18 78.1902 248.275 78.3957 248.464 78.5415C248.654 78.6855 248.891 78.7575 249.177 78.7575ZM253.914 79.212C253.556 79.212 253.243 79.1173 252.974 78.9279C252.705 78.7385 252.495 78.4743 252.343 78.1353C252.194 77.7963 252.119 77.4014 252.119 76.9506C252.119 76.5018 252.194 76.1088 252.343 75.7717C252.495 75.4326 252.706 75.1694 252.977 74.9819C253.248 74.7925 253.563 74.6978 253.923 74.6978C254.188 74.6978 254.409 74.7451 254.585 74.8398C254.761 74.9326 254.902 75.0482 255.008 75.1864C255.114 75.3247 255.197 75.4592 255.255 75.5898H255.301V73.3029H255.809V79.1211H255.315V78.3114H255.255C255.197 78.444 255.113 78.5804 255.005 78.7205C254.897 78.8588 254.754 78.9753 254.576 79.07C254.4 79.1647 254.18 79.212 253.914 79.212ZM253.974 78.7489C254.256 78.7489 254.497 78.6722 254.696 78.5188C254.895 78.3635 255.046 78.1504 255.15 77.8796C255.256 77.6069 255.309 77.2944 255.309 76.9421C255.309 76.5936 255.257 76.2859 255.153 76.0188C255.049 75.7499 254.897 75.5397 254.699 75.3881C254.5 75.2347 254.258 75.158 253.974 75.158C253.682 75.158 253.436 75.2376 253.235 75.3967C253.037 75.5539 252.885 75.7669 252.781 76.0359C252.679 76.3048 252.627 76.6069 252.627 76.9421C252.627 77.2811 252.68 77.587 252.784 77.8597C252.888 78.1325 253.039 78.3493 253.238 78.5103C253.439 78.6694 253.684 78.7489 253.974 78.7489ZM259.014 79.212C258.607 79.212 258.254 79.1173 257.957 78.9279C257.66 78.7366 257.43 78.4724 257.267 78.1353C257.106 77.7963 257.025 77.4061 257.025 76.9648C257.025 76.5254 257.106 76.1353 257.267 75.7944C257.43 75.4516 257.654 75.1836 257.94 74.9904C258.228 74.7953 258.56 74.6978 258.937 74.6978C259.174 74.6978 259.402 74.7414 259.622 74.8285C259.842 74.9137 260.038 75.0453 260.213 75.2234C260.389 75.3995 260.528 75.622 260.63 75.891C260.733 76.158 260.784 76.4743 260.784 76.8398V77.0898H257.375V76.6438H260.267C260.267 76.3635 260.21 76.1116 260.096 75.8881C259.984 75.6628 259.828 75.4847 259.627 75.354C259.429 75.2234 259.199 75.158 258.937 75.158C258.661 75.158 258.417 75.2319 258.207 75.3796C257.997 75.5273 257.832 75.7224 257.713 75.9648C257.595 76.2073 257.536 76.4724 257.534 76.7603V77.0273C257.534 77.3739 257.593 77.677 257.713 77.9364C257.834 78.194 258.005 78.3938 258.227 78.5359C258.449 78.6779 258.711 78.7489 259.014 78.7489C259.22 78.7489 259.401 78.7167 259.556 78.6523C259.714 78.5879 259.845 78.5018 259.951 78.3938C260.059 78.284 260.141 78.1637 260.196 78.033L260.676 78.1893C260.609 78.373 260.501 78.5425 260.349 78.6978C260.199 78.8531 260.012 78.9781 259.787 79.0728C259.563 79.1656 259.306 79.212 259.014 79.212ZM262.301 79.1637C262.19 79.1637 262.093 79.1239 262.012 79.0444C261.932 78.9629 261.892 78.8664 261.892 78.7546C261.892 78.641 261.932 78.5444 262.012 78.4648C262.093 78.3853 262.19 78.3455 262.301 78.3455C262.415 78.3455 262.512 78.3853 262.591 78.4648C262.671 78.5444 262.711 78.641 262.711 78.7546C262.711 78.8285 262.692 78.8967 262.654 78.9592C262.618 79.0217 262.569 79.0719 262.506 79.1097C262.445 79.1457 262.377 79.1637 262.301 79.1637Z" fill="#212529"/>
<defs>
<filter id="filter0_dd_1502_296" x="0" y="0" width="84.8906" height="103.465" filterUnits="userSpaceOnUse" color-interpolation-filters="sRGB">
<feFlood flood-opacity="0" result="BackgroundImageFix"/>
<feColorMatrix in="SourceAlpha" type="matrix" values="0 0 0 0 0 0 0 0 0 0 0 0 0 0 0 0 0 0 127 0" result="hardAlpha"/>
<feOffset dx="-1"/>
<feComposite in2="hardAlpha" operator="out"/>
<feColorMatrix type="matrix" values="0 0 0 0 0.933333 0 0 0 0 0.945098 0 0 0 0 0.976471 0 0 0 0.25 0"/>
<feBlend mode="normal" in2="BackgroundImageFix" result="effect1_dropShadow_1502_296"/>
<feColorMatrix in="SourceAlpha" type="matrix" values="0 0 0 0 0 0 0 0 0 0 0 0 0 0 0 0 0 0 127 0" result="hardAlpha"/>
<feOffset dy="4"/>
<feGaussianBlur stdDeviation="2"/>
<feComposite in2="hardAlpha" operator="out"/>
<feColorMatrix type="matrix" values="0 0 0 0 0 0 0 0 0 0 0 0 0 0 0 0 0 0 0.25 0"/>
<feBlend mode="normal" in2="effect1_dropShadow_1502_296" result="effect2_dropShadow_1502_296"/>
<feBlend mode="normal" in="SourceGraphic" in2="effect2_dropShadow_1502_296" result="shape"/>
</filter>
<filter id="filter1_dd_1502_296" x="35.459" y="9.61133" width="69.1738" height="84.3711" filterUnits="userSpaceOnUse" color-interpolation-filters="sRGB">
<feFlood flood-opacity="0" result="BackgroundImageFix"/>
<feColorMatrix in="SourceAlpha" type="matrix" values="0 0 0 0 0 0 0 0 0 0 0 0 0 0 0 0 0 0 127 0" result="hardAlpha"/>
<feOffset dx="-1"/>
<feComposite in2="hardAlpha" operator="out"/>
<feColorMatrix type="matrix" values="0 0 0 0 0.933333 0 0 0 0 0.945098 0 0 0 0 0.976471 0 0 0 0.25 0"/>
<feBlend mode="normal" in2="BackgroundImageFix" result="effect1_dropShadow_1502_296"/>
<feColorMatrix in="SourceAlpha" type="matrix" values="0 0 0 0 0 0 0 0 0 0 0 0 0 0 0 0 0 0 127 0" result="hardAlpha"/>
<feOffset dy="4"/>
<feGaussianBlur stdDeviation="2"/>
<feComposite in2="hardAlpha" operator="out"/>
<feColorMatrix type="matrix" values="0 0 0 0 0 0 0 0 0 0 0 0 0 0 0 0 0 0 0.25 0"/>
<feBlend mode="normal" in2="effect1_dropShadow_1502_296" result="effect2_dropShadow_1502_296"/>
<feBlend mode="normal" in="SourceGraphic" in2="effect2_dropShadow_1502_296" result="shape"/>
</filter>
<filter id="filter2_d_1502_296" x="28.3672" y="37.5352" width="24.2617" height="24.2617" filterUnits="userSpaceOnUse" color-interpolation-filters="sRGB">
<feFlood flood-opacity="0" result="BackgroundImageFix"/>
<feColorMatrix in="SourceAlpha" type="matrix" values="0 0 0 0 0 0 0 0 0 0 0 0 0 0 0 0 0 0 127 0" result="hardAlpha"/>
<feOffset dy="2"/>
<feGaussianBlur stdDeviation="1"/>
<feComposite in2="hardAlpha" operator="out"/>
<feColorMatrix type="matrix" values="0 0 0 0 0 0 0 0 0 0 0 0 0 0 0 0 0 0 0.5 0"/>
<feBlend mode="normal" in2="BackgroundImageFix" result="effect1_dropShadow_1502_296"/>
<feBlend mode="normal" in="SourceGraphic" in2="effect1_dropShadow_1502_296" result="shape"/>
</filter>
<filter id="filter3_d_1502_296" x="51.7461" y="37.7949" width="24.6523" height="23.873" filterUnits="userSpaceOnUse" color-interpolation-filters="sRGB">
<feFlood flood-opacity="0" result="BackgroundImageFix"/>
<feColorMatrix in="SourceAlpha" type="matrix" values="0 0 0 0 0 0 0 0 0 0 0 0 0 0 0 0 0 0 127 0" result="hardAlpha"/>
<feOffset dy="2"/>
<feGaussianBlur stdDeviation="1"/>
<feComposite in2="hardAlpha" operator="out"/>
<feColorMatrix type="matrix" values="0 0 0 0 0 0 0 0 0 0 0 0 0 0 0 0 0 0 0.5 0"/>
<feBlend mode="normal" in2="BackgroundImageFix" result="effect1_dropShadow_1502_296"/>
<feBlend mode="normal" in="SourceGraphic" in2="effect1_dropShadow_1502_296" result="shape"/>
</filter>
<filter id="filter4_d_1502_296" x="150.066" y="27.4043" width="36.6016" height="44.6543" filterUnits="userSpaceOnUse" color-interpolation-filters="sRGB">
<feFlood flood-opacity="0" result="BackgroundImageFix"/>
<feColorMatrix in="SourceAlpha" type="matrix" values="0 0 0 0 0 0 0 0 0 0 0 0 0 0 0 0 0 0 127 0" result="hardAlpha"/>
<feOffset dy="2"/>
<feGaussianBlur stdDeviation="1"/>
<feComposite in2="hardAlpha" operator="out"/>
<feColorMatrix type="matrix" values="0 0 0 0 0 0 0 0 0 0 0 0 0 0 0 0 0 0 0.5 0"/>
<feBlend mode="normal" in2="BackgroundImageFix" result="effect1_dropShadow_1502_296"/>
<feBlend mode="normal" in="SourceGraphic" in2="effect1_dropShadow_1502_296" result="shape"/>
</filter>
<filter id="filter5_d_1502_296" x="108.246" y="27.4043" width="39.8477" height="44.6543" filterUnits="userSpaceOnUse" color-interpolation-filters="sRGB">
<feFlood flood-opacity="0" result="BackgroundImageFix"/>
<feColorMatrix in="SourceAlpha" type="matrix" values="0 0 0 0 0 0 0 0 0 0 0 0 0 0 0 0 0 0 127 0" result="hardAlpha"/>
<feOffset dy="2"/>
<feGaussianBlur stdDeviation="1"/>
<feComposite in2="hardAlpha" operator="out"/>
<feColorMatrix type="matrix" values="0 0 0 0 0 0 0 0 0 0 0 0 0 0 0 0 0 0 0.5 0"/>
<feBlend mode="normal" in2="BackgroundImageFix" result="effect1_dropShadow_1502_296"/>
<feBlend mode="normal" in="SourceGraphic" in2="effect1_dropShadow_1502_296" result="shape"/>
</filter>
<filter id="filter6_d_1502_296" x="202.801" y="50.5234" width="19.3262" height="21.9238" filterUnits="userSpaceOnUse" color-interpolation-filters="sRGB">
<feFlood flood-opacity="0" result="BackgroundImageFix"/>
<feColorMatrix in="SourceAlpha" type="matrix" values="0 0 0 0 0 0 0 0 0 0 0 0 0 0 0 0 0 0 127 0" result="hardAlpha"/>
<feOffset dy="2"/>
<feGaussianBlur stdDeviation="1"/>
<feComposite in2="hardAlpha" operator="out"/>
<feColorMatrix type="matrix" values="0 0 0 0 0 0 0 0 0 0 0 0 0 0 0 0 0 0 0.5 0"/>
<feBlend mode="normal" in2="BackgroundImageFix" result="effect1_dropShadow_1502_296"/>
<feBlend mode="normal" in="SourceGraphic" in2="effect1_dropShadow_1502_296" result="shape"/>
</filter>
<filter id="filter7_d_1502_296" x="239.945" y="44.8086" width="18.0273" height="27.1191" filterUnits="userSpaceOnUse" color-interpolation-filters="sRGB">
<feFlood flood-opacity="0" result="BackgroundImageFix"/>
<feColorMatrix in="SourceAlpha" type="matrix" values="0 0 0 0 0 0 0 0 0 0 0 0 0 0 0 0 0 0 127 0" result="hardAlpha"/>
<feOffset dy="2"/>
<feGaussianBlur stdDeviation="1"/>
<feComposite in2="hardAlpha" operator="out"/>
<feColorMatrix type="matrix" values="0 0 0 0 0 0 0 0 0 0 0 0 0 0 0 0 0 0 0.5 0"/>
<feBlend mode="normal" in2="BackgroundImageFix" result="effect1_dropShadow_1502_296"/>
<feBlend mode="normal" in="SourceGraphic" in2="effect1_dropShadow_1502_296" result="shape"/>
</filter>
<filter id="filter8_d_1502_296" x="184.617" y="44.8086" width="21.4043" height="27.25" filterUnits="userSpaceOnUse" color-interpolation-filters="sRGB">
<feFlood flood-opacity="0" result="BackgroundImageFix"/>
<feColorMatrix in="SourceAlpha" type="matrix" values="0 0 0 0 0 0 0 0 0 0 0 0 0 0 0 0 0 0 127 0" result="hardAlpha"/>
<feOffset dy="2"/>
<feGaussianBlur stdDeviation="1"/>
<feComposite in2="hardAlpha" operator="out"/>
<feColorMatrix type="matrix" values="0 0 0 0 0 0 0 0 0 0 0 0 0 0 0 0 0 0 0.5 0"/>
<feBlend mode="normal" in2="BackgroundImageFix" result="effect1_dropShadow_1502_296"/>
<feBlend mode="normal" in="SourceGraphic" in2="effect1_dropShadow_1502_296" result="shape"/>
</filter>
<filter id="filter9_d_1502_296" x="221.242" y="50.5234" width="18.8066" height="21.793" filterUnits="userSpaceOnUse" color-interpolation-filters="sRGB">
<feFlood flood-opacity="0" result="BackgroundImageFix"/>
<feColorMatrix in="SourceAlpha" type="matrix" values="0 0 0 0 0 0 0 0 0 0 0 0 0 0 0 0 0 0 127 0" result="hardAlpha"/>
<feOffset dy="2"/>
<feGaussianBlur stdDeviation="1"/>
<feComposite in2="hardAlpha" operator="out"/>
<feColorMatrix type="matrix" values="0 0 0 0 0 0 0 0 0 0 0 0 0 0 0 0 0 0 0.5 0"/>
<feBlend mode="normal" in2="BackgroundImageFix" result="effect1_dropShadow_1502_296"/>
<feBlend mode="normal" in="SourceGraphic" in2="effect1_dropShadow_1502_296" result="shape"/>
</filter>
<filter id="filter10_d_1502_296" x="258.129" y="62.6035" width="9.97461" height="9.71484" filterUnits="userSpaceOnUse" color-interpolation-filters="sRGB">
<feFlood flood-opacity="0" result="BackgroundImageFix"/>
<feColorMatrix in="SourceAlpha" type="matrix" values="0 0 0 0 0 0 0 0 0 0 0 0 0 0 0 0 0 0 127 0" result="hardAlpha"/>
<feOffset dy="2"/>
<feGaussianBlur stdDeviation="1"/>
<feComposite in2="hardAlpha" operator="out"/>
<feColorMatrix type="matrix" values="0 0 0 0 0 0 0 0 0 0 0 0 0 0 0 0 0 0 0.5 0"/>
<feBlend mode="normal" in2="BackgroundImageFix" result="effect1_dropShadow_1502_296"/>
<feBlend mode="normal" in="SourceGraphic" in2="effect1_dropShadow_1502_296" result="shape"/>
</filter>
</defs>
</svg>
